<mxfile host="Electron" modified="2024-03-19T20:43:02.156Z" agent="Mozilla/5.0 (Windows NT 10.0; Win64; x64) AppleWebKit/537.36 (KHTML, like Gecko) draw.io/21.6.8 Chrome/114.0.5735.289 Electron/25.5.0 Safari/537.36" etag="RmfgxCR7dRostXjxRTwX" version="21.6.8" type="device">
  <diagram name="Страница — 1" id="_NNJ8Qyopue1inblywc9">
    <mxGraphModel dx="461" dy="624" grid="1" gridSize="10" guides="1" tooltips="1" connect="1" arrows="1" fold="1" page="1" pageScale="1" pageWidth="827" pageHeight="1169" math="0" shadow="0">
      <root>
        <mxCell id="0" />
        <mxCell id="1" parent="0" />
        <mxCell id="gyxe0gYEYOUFi3LcDs3f-8" style="edgeStyle=orthogonalEdgeStyle;rounded=0;orthogonalLoop=1;jettySize=auto;html=1;entryX=0.5;entryY=0;entryDx=0;entryDy=0;" edge="1" parent="1" source="gyxe0gYEYOUFi3LcDs3f-1" target="gyxe0gYEYOUFi3LcDs3f-7">
          <mxGeometry relative="1" as="geometry" />
        </mxCell>
        <mxCell id="gyxe0gYEYOUFi3LcDs3f-1" value="" style="shape=parallelogram;perimeter=parallelogramPerimeter;whiteSpace=wrap;html=1;fixedSize=1;" vertex="1" parent="1">
          <mxGeometry x="120" y="50" width="100" height="30" as="geometry" />
        </mxCell>
        <mxCell id="gyxe0gYEYOUFi3LcDs3f-3" value="" style="shape=parallelogram;perimeter=parallelogramPerimeter;whiteSpace=wrap;html=1;fixedSize=1;" vertex="1" parent="1">
          <mxGeometry x="120" y="200" width="100" height="30" as="geometry" />
        </mxCell>
        <mxCell id="gyxe0gYEYOUFi3LcDs3f-9" style="edgeStyle=orthogonalEdgeStyle;rounded=0;orthogonalLoop=1;jettySize=auto;html=1;entryX=0.5;entryY=0;entryDx=0;entryDy=0;" edge="1" parent="1" source="gyxe0gYEYOUFi3LcDs3f-7" target="gyxe0gYEYOUFi3LcDs3f-3">
          <mxGeometry relative="1" as="geometry" />
        </mxCell>
        <mxCell id="gyxe0gYEYOUFi3LcDs3f-7" value="" style="rounded=0;whiteSpace=wrap;html=1;" vertex="1" parent="1">
          <mxGeometry x="95" y="120" width="150" height="40" as="geometry" />
        </mxCell>
        <mxCell id="gyxe0gYEYOUFi3LcDs3f-10" value="" style="shape=image;verticalLabelPosition=bottom;labelBackgroundColor=default;verticalAlign=top;aspect=fixed;imageAspect=0;image=data:image/png,iVBORw0KGgoAAAANSUhEUgAAAGEAAAArCAYAAABoxeapAAAAAXNSR0IArs4c6QAAAARnQU1BAACxjwv8YQUAAAAJcEhZcwAADsMAAA7DAcdvqGQAAARQSURBVHhe7ZvLLjRBFMfPfE/g8gZYSCwkLpFgwwIRazyBhKWFBU/AE5DYI7ElxELikogVsbBBPADxBubrfzmHM5PunurbTE2nfkmlznRVV52qf1V1VYlKNYA8LeUfx54W4kVwAC+CA3gRHKAUIuzs7FClUqkJy8vLnOo+pRBhY2ODXl9fqbe3l58QTU1NseU+pVmOenp6qK+vj38RDQwMsOU+pf0mTE5OsuU+pRLh/v7exLOzsyZuF0ojwtvbG319fRl7eHjYxO1CaUSQWQAmJibYag9KI8LT0xNbRP39/Wy1B6lFOD09pbW1NbMj0fvz0dHRwvboNzc3puyurq6a+uDH0dGRyYNtKnZKeYEziLRxbm6OPj4+OOWHw8ND4wPS4dfW1hanJAC3qEkI9uPV4MOHm9fq0tJS9eHhwTxH3NnZaZ6PjIyYZ3kRNPy3TsTX19ecUq3u7u6a5xJWV1c5JRu6Th02Nzdj0xG2t7dNHlsSiaA7+uDggJ/+gQ5AmjiaB2gsREW5UR0cjP7fDoAoWZE60VYIjt9SPjpe0hFkQKDjdZ4kWIuAiqWxmAFhiCNhAqVFRhvqhg9h6BEpMzMLqAdl6rKk7RgIaD8EqPdHfChMBIxuqQRLUjOAmFJnnLBahKKQ8iFG1ICQPIWIgE6XCvJac22Q0Yc4jrSNtwUzQupACJttOk/S5dhqd3RxccEW0cLCAlvFgt0XLuVAMP1NHMbj4yNbRNPT02zly93dHVtEwSCkwcFB/vXH8/MzW8nPKVYi7O/vs0U0Pz/PVrHc3t6yFd8o3UHj4+Ns5YsWemVlha1arq6u2CIaGxtjyxKeEbEgG0JR0z0Mvc5HfZCBbb4syLKI3dL39zc/rUV2jWn6qOFMwAFJ6OjoYKt4zs/P2SLq7u5mqxbcF0m+YLcSmS8LqEOWxZmZGRPXg5ki91ZplsREJ+ahoSG23AAnZQGn1iLQd1L4QxFOxvVkXRITifD+/s5W69nb26PPz0/+RaEfyzzQd1JRfyi6vLxkK+XfMXhZigXZEOK2ijipxm1fpQzLKn/XYYSXlxd++gPODFiD9TlCX2XAj7BzheRFsAWHskbvSB7dP9iy4vtg852y8gYnRHEEDZSCEaOx4kSeIqAsyY/6UReCPpWj4yUPBgHS5b2TkxMu6Q/Ji2ADypP8cR9cXS7egV8YJGGn6jCsvIGq8vUPC0hrdGej89uAA2JUnTLK9SFSAt4JEwDofDagHMkfdwDTg1SCrQDAzpsANBijTHcMRgdGJtIaIe/gfVtkSsu7aGz9aRWCiE9Ij/MlqQ/6Ui5KWKD9xJKE95JgLUIW9IjN84Y1CS74EEWi3VFajo+PTRxMUVpfXzd2s3HBh0hYjMLAcoFqkqyReQMfgv19S32IoykzIVir6ezsrJATrS2Li4st9yEK/08iDtCUmeCJx4vgAF4EB/AiOIAXwQG8CA7gRXAAL4IDeBFaDtF/K7gRqW917o8AAAAASUVORK5CYII=;" vertex="1" parent="1">
          <mxGeometry x="147.44" y="55" width="45.12" height="20" as="geometry" />
        </mxCell>
        <mxCell id="gyxe0gYEYOUFi3LcDs3f-11" value="" style="shape=image;verticalLabelPosition=bottom;labelBackgroundColor=default;verticalAlign=top;aspect=fixed;imageAspect=0;image=data:image/png,iVBORw0KGgoAAAANSUhEUgAAAN0AAAAqCAYAAAA3U167AAAAAXNSR0IArs4c6QAAAARnQU1BAACxjwv8YQUAAAAJcEhZcwAADsMAAA7DAcdvqGQAAAhiSURBVHhe7Z3Ljw1NFMBrvr/AY2clxoIYkXgHESyGiK1gLSFjKyTYSgQLiRVi1tgjHgnJeMQrQkRYIFZWHv+B0b9S5zq3p6qn+9779e2enF9SqZpbp+tWVZ9Tr1M3MzKd4QzDqI3/QmwYRk2Y0RlGzZjRtZAFCxa4kZGRTnj79m3IMdqAGV0L+fnzp5uYmPDp+fPnu1WrVvm00Q7M6FrK4sWLfbx+/XofG+3BjK6lPHjwwMc7duzwsdEezOgaDvu1I0eOdPZxS5cudefOnXMvXrzw+Zs2bfKxMRP6Se99Cfv37w+5QwQ/ndFMrl27hg91eu3atdNv3rzxnxFn+zj/OeH79+/+cyPO58+fp0dHRzv9denSpZAzPGymayjXr193Bw4ccJnBuTt37nQOS4hlH0fewoULfdqIs2TJEr86EFasWBFSw8OMroH8+PHDLynhwoULScNat25dSBll2bJlS0gNDzO6BjI5Oel+/frlZ7KYknz69MnHW7du9bFRjOx/d+7c6eNhY0bXQK5cueLjvXv3+ljDLJjtU3x6+fLlPjbSfPnyxQ9gsGbNGh8PGzO6hoGSiFHFTiafP3/uY3OKl0NmOdi8eXNIDRczuobx7du3kHJu0aJFIfWPixcv+tic4uV49+5dSDm3bNmykBoulY3u9u3bfgMvPqP8vT+dT+BAgCWRJi+D7yQvM5egvfQD/SVtJtAHRX4jTt40jx8/dnfv3vXpfp3iclgj/r9Tp06FnL/k86k77dDEZDh1LQvtyfcLaT5jxi8L5dCP+k4qfUs5N27c8DKjo6Mz+rMs+Pukjrt27Zqhq7RZ9Jk65PtyBsF1UIqTJ092/B0S8CEJExMTM/IJ2QY2SJSTmSvgI6JdtG/fvn1RX5vuP+AZ6RORB/xxlCHlPXr0qPN5VV8d5WrflYRbt2518jPlmZFPkO/VbUjJpJC2IEt7dFvOnj3rP6ds3f4YyEt/6HIAf5zUh4DeVUWXrwN2UJRPoB0pShudGIs4F1EW+QIgnxc5NTXl/6YDJF/L0Jk3b970f8dkekWXM4hQ1Gll0EqJkzuP9Ke8QI28SFEU+om0fskYCAbKe6hSVzEonuN5yqE8AuVIvakX30cQA8nLUCfKiMmkQFZ0h2d+//4dcv4hbUSfUuhypJ/y9OMUl/JpJ/3P31IW9ZN8ghg77dYyKSoZnVYe/qZwGkaD+HIqopHOI9DByBbJ9IOUMahQRZHz0EZ54bQ7hrygmEGi1NIvvHRkpd94wWLM9LnMTmWh7GyJ1ClPz6y8R+qdr5MeHPlOeecaLVPUd7pdeV0QtPKm2iflxHRK0LpFu6tAmTyvn5N3iu7zXmM6L9/Hsyl61nTdaDow1ijd6DIycwW9DEepm4w2Ft5lbNbQMoTZZFJGJ9faimRAG11MTpcTG7SEQeuWlEU/pYxdZP4Xo5PRlpCaumVkKJKRcooq2Sb0zBFTzqbBe5H6phRJK3lKRpeDAcbQ+hArQ5jN6KQc4iKkjEHoFhOGlEeITSBaJrZtEHpyGXBiKQ7HrOHu8OHDPq3hhCdTQJ9OyTTRcdkv9+/fDynn9uzZE1LN5eHDhyHl3OnTp6NXzvSxe0pGn2LHnPbkiz5ky7Ke74xygirlZEs8H8fQ9RnEz5+ePXsWUs7/gDjmI/3w4UNIFfsEezI6XfixY8dCqhtx4kJKpomOy365evVqSDm3e/fukGour1698nG24ki6L+7du+fjMjIpgxJXB8Ru2mhev34dUs6NjY2F1F+ePHkSUsU6o41kED9/0kYcm0BgamoqpJzbsGFDSEUIM14lWDbxKCE2zYJeIqRk2IyKzFxB2tOG5bJeCqcOfGA2Gb2sii0HQe+vUstPQS9DqaNGl1O0RC0rVxapE9uhFGW3Sj3NdHrkS11Fkl82Q0pGyskq6eN+EKfooAIO0argpBXmzZsXUs1FrzS2b98eUt3oNq1evTqkuikzq8glbYjdtBH0NTi2JXmHtp4xU0tUyhC5fpaygq7T+Pi4j/PoLddsy9nKRlemAiCNThlUlUq2kZSCNgm9HNq4cWNIdfP06dOQShuU3hemfjojOgNFN0P0nvjQoUMhVQ1uogjcFOkXPTht27YtpLqpspytbHQfP34MqbRi6dExdUAy6DV3NmsPNBw/fjyU3Btfv34Nqeby8uXLkEqvRvSKJfWrhjIrFmatMpw/f97HrKIOHjzo01W4fPly1zWtQVwK1wdJqR/Blhl4hMpGpzeyKWN5//59SDm3cuXKkOpGb0xluUFncbdN57UJ3dmiiDFQDD0aDwP6Wg5RioxFRnmMJrZM0yfQegbjPqJuI8s8IX93UeAZmRHPnDkT/T5tvHy3hudPnDjhjh49Gj7pNhLqU+VuqKDf5Wwzua4fehy7q8moXgm88DxW9Kg+IMkqEz7ths2myOgrTWxGUwcvbUC3nQMn2cQT4++S/hu2Dy9//SuGPiBJ1Vc7xWkbiM9OP6PlYg5tvksOIor6hjwph76mXwlycEfZ+ruoC/nyXNUbPDwrZaGzsWtrIDIEnqEOtIc+4W9NJaPTFZAOjiGdR5xCO1MlZKNEqw0OtPLEAnm0fdjoWzMpRdTvqKjOsfbGnMOi+Mjr78RQpIzUACAwOKf6V4wZmXxe/jvLogcn2pQyOj3YSogZHFQyOj2CpDzuusGMDCmojH4JpGMVbCP0Ae3RykFfoFDkNQG90kj1u7wfAu8+BYrJgIkcilak3OTlFZRn0KeyfcPAputPefnBWhsy+b32u8yghKJ26TrRF0WDh/2rLMOomZ78dIZh9I4ZnWHUjBmdYdSMGZ1h1Ai+OzM6w6gRbmLZ6aVh1IzNdIZRM2Z0hlEzZnSGUTNmdIZRK879AW6sr9muy13mAAAAAElFTkSuQmCC;" vertex="1" parent="1">
          <mxGeometry x="117.38" y="130" width="105.24" height="20" as="geometry" />
        </mxCell>
        <mxCell id="gyxe0gYEYOUFi3LcDs3f-12" value="" style="shape=image;verticalLabelPosition=bottom;labelBackgroundColor=default;verticalAlign=top;aspect=fixed;imageAspect=0;image=data:image/png,iVBORw0KGgoAAAANSUhEUgAAACkAAAAjCAYAAAAJ+yOQAAAAAXNSR0IArs4c6QAAAARnQU1BAACxjwv8YQUAAAAJcEhZcwAADsMAAA7DAcdvqGQAAAIZSURBVFhH7Zg9jsIwEIUnewNaWmhp+BMCehAXgCtAT8MNuAE3oKVAFDRI/EhABRIIGjgBnCHLhGfWDnFspBRolU+K8syMnBfbY0c47gP6cn5w/2pik1ERm4yK2GRUxCaj4v+YnEwmVCgUyHEcSqfTtN/vEXkix/nqdDp0v98RfeLPabVabzla+OwOo9fr8dmuXPl8HlHXbbfbb3G+arUaMuxywgg1KTofDAZem82JBzAcT6VS7nw+99qLxeIVl3MSiYQ7Ho+9dlCOCaPJ4XCI1p9pNsbG2fTtdkP0CY+OMNBsNr3csBwb7LKA6JwfzKOz2+0Q+UM2YJNjw0cm+aGic7EE/PALmHJEP2zWBmuTPCLi4WwkCJ5WU87lcnnlcFHaYL1Pnk4nKKJutwulstlsoPQ52+0WiqhSqUCFY23yUcFQRKVSCUrlcDhA6XNGoxEUUaPRgDKAETUi1hqvJx02BfHpemSsTMrriLcVHSJHZ0Be1/1+H7+asZru8/kMRZTNZqFUlsslFFEul4NSWa/XUETlchnKjJXJ1WoFpe/8eDxCEWUyGSgV+cxPJpPenc/ver3+9j0gY2VyOp1CEVWrVSiV2WwGRVQsFqFUrtcr1HN2uM0G5YoPBNOuRd775A8LP6IgwgqLN3fRl7i4IINOJRmjSfmDQLf5yoUVVrX8wuL855dh7T/Xg4j/ZomK2GRUxCajIjYZDUS/NuVzu94U78oAAAAASUVORK5CYII=;" vertex="1" parent="1">
          <mxGeometry x="160.63" y="207" width="18.74" height="16" as="geometry" />
        </mxCell>
      </root>
    </mxGraphModel>
  </diagram>
</mxfile>
